<?xml version="1.0" encoding="UTF-8"?>
<svg id="Layer_2" data-name="Layer 2" xmlns="http://www.w3.org/2000/svg" viewBox="0 0 768.8 200.3">
  <g id="Layer_1-2" data-name="Layer 1">
    <g>
      <path d="M479.6,128.9c-.7,0-1.5,0-2.3.1s-1.6.2-2.4.4v19.5c.7.5,1.6.9,2.8,1.3,1.2.4,2.4.6,3.7.6,2.9,0,5-1,6.3-2.9s2-4.6,2-7.9c0-3.5-.8-6.2-2.4-8.2-1.6-1.9-4.2-2.9-7.7-2.9Z" fill="none"/>
      <path d="M685.1,50.8c-2.6,0-4.6,1-6.1,3s-2.2,4.6-2.2,8,.7,6.1,2.2,8.1,3.5,3,6.1,3,4.6-1,6.1-3,2.2-4.7,2.2-8.1-.7-6.1-2.2-8c-1.5-2-3.5-3-6.1-3Z" fill="none"/>
      <path d="M546.2,70c1.5-2,2.2-4.7,2.2-8.1s-.7-6.1-2.2-8c-1.5-2-3.5-3-6.1-3s-4.6,1-6.1,3-2.2,4.6-2.2,8,.7,6.1,2.2,8.1,3.5,3,6.1,3c2.6-.1,4.6-1,6.1-3Z" fill="none"/>
      <path d="M442.7,128.8c-2.6,0-4.6,1-6.1,3s-2.2,4.6-2.2,8,.7,6.1,2.2,8.1,3.5,3,6.1,3,4.6-1,6.1-3,2.2-4.7,2.2-8.1-.7-6.1-2.2-8c-1.5-2-3.5-3-6.1-3Z" fill="none"/>
      <path d="M615.4,73v-8.7c-.4-.1-1.1-.3-1.9-.4-.8-.1-1.7-.2-2.7-.2-.9,0-1.7.1-2.6.2-.9.1-1.7.4-2.4.7-.7.3-1.3.8-1.7,1.5-.4.6-.7,1.4-.7,2.4,0,1.9.6,3.2,1.8,3.9,1.2.7,2.8,1.1,4.7,1.1,2.4-.2,4.3-.3,5.5-.5Z" fill="none"/>
      <path d="M584.1,128.8c-2.6,0-4.6,1-6.1,3s-2.2,4.6-2.2,8,.7,6.1,2.2,8.1,3.5,3,6.1,3,4.6-1,6.1-3,2.2-4.7,2.2-8.1-.7-6.1-2.2-8c-1.5-2-3.5-3-6.1-3Z" fill="none"/>
      <path d="M434.9,73.3c2.4,0,4.3-.1,5.5-.4v-8.7c-.4-.1-1.1-.3-1.9-.4s-1.7-.2-2.7-.2c-.9,0-1.7.1-2.6.2s-1.7.4-2.4.7c-.7.3-1.3.8-1.7,1.5-.4.6-.7,1.4-.7,2.4,0,1.9.6,3.2,1.8,3.9,1.1.7,2.7,1,4.7,1Z" fill="none"/>
      <path d="M295,0v200.3h473.8V0h-473.8ZM614.1,26.3l4.9,4.6-10.6,10.3-3.9-3.5,9.6-11.4ZM367.5,31.3c1-.9,2.1-1.3,3.4-1.3s2.4.4,3.4,1.3c1,.9,1.4,2.1,1.4,3.6s-.5,2.6-1.4,3.5-2.1,1.3-3.4,1.3-2.5-.4-3.4-1.3c-1-.9-1.4-2-1.4-3.5s.5-2.7,1.4-3.6ZM374.9,44.9v34h-7.9v-34h7.9ZM331.6,33.8h28.4v7h-20.3v11.5h18v7h-18v19.6h-8.2v-45.1h.1ZM362.1,156.9h-30.5v-45h28.9v7h-20.7v11h18.5v6.8h-18.5v13.2h22.3v7h0ZM390,141.5c-2.3,5.8-4.5,10.9-6.7,15.4h-6.7c-2.2-4.5-4.4-9.6-6.7-15.4-2.3-5.8-4.4-12-6.2-18.6h8.4c.5,1.9,1,4,1.7,6.1.6,2.2,1.3,4.4,2,6.6.7,2.2,1.5,4.3,2.2,6.4.8,2.1,1.5,3.9,2.1,5.6.7-1.6,1.3-3.5,2.1-5.6.7-2.1,1.5-4.2,2.2-6.4s1.4-4.4,2.1-6.6c.6-2.2,1.2-4.2,1.7-6.1h8.1c-1.9,6.6-4,12.8-6.3,18.6ZM398.3,50.9c-1,0-2,.1-3.1.2s-1.9.2-2.4.3v27.5h-7.9v-32.9c1.5-.4,3.5-.8,5.9-1.2,2.4-.4,5.1-.6,8.1-.6,2.8,0,5.1.4,7,1.1,1.9.8,3.3,1.8,4.5,3.2,1.1,1.4,1.9,3,2.3,4.9.5,1.9.7,4,.7,6.3v19.2h-7.9v-17.9c0-1.8-.1-3.4-.4-4.6-.2-1.3-.6-2.3-1.2-3.1-.5-.8-1.3-1.4-2.2-1.8-.9-.4-2-.6-3.4-.6ZM421.4,130c-.6-.2-1.5-.4-2.7-.7-1.2-.2-2.5-.4-4-.4-.9,0-1.8.1-2.8.3s-1.7.3-2,.5v27.2h-7.9v-32.4c1.5-.6,3.4-1.1,5.7-1.6,2.3-.5,4.8-.7,7.6-.7.5,0,1.1,0,1.8.1.7.1,1.4.2,2.1.3s1.4.2,2,.4c.7.2,1.2.3,1.6.4l-1.4,6.6ZM421.6,73.7c-.7-1.4-1-3.1-1-5.1s.4-3.6,1.1-4.9c.8-1.3,1.8-2.4,3.1-3.3,1.3-.8,2.8-1.5,4.5-1.8,1.7-.4,3.5-.6,5.4-.6.9,0,1.8.1,2.7.2.9.1,2,.3,3.1.6v-1.3c0-.9-.1-1.8-.3-2.6-.2-.8-.6-1.5-1.1-2.2-.5-.6-1.3-1.1-2.1-1.5-.9-.3-2-.5-3.3-.5-1.8,0-3.5.1-5,.4s-2.8.6-3.7.9l-1-6.4c1-.3,2.4-.7,4.4-1,1.9-.3,3.9-.5,6.1-.5,2.6,0,4.8.3,6.6,1,1.8.6,3.2,1.6,4.3,2.7,1.1,1.2,1.8,2.6,2.3,4.3.5,1.7.7,3.5.7,5.5v20.6c-1.2.3-3,.6-5.5.9-2.4.4-5.2.6-8.3.6-2,0-3.9-.2-5.6-.6s-3.1-1-4.3-1.9c-1.5-1-2.5-2.1-3.1-3.5ZM457.8,147.2c-.8,2.2-1.9,4.1-3.3,5.7-1.4,1.6-3.2,2.8-5.2,3.6-2,.9-4.2,1.3-6.7,1.3s-4.6-.4-6.6-1.3c-2-.9-3.7-2.1-5.1-3.6-1.4-1.6-2.5-3.4-3.3-5.7-.8-2.2-1.2-4.7-1.2-7.3s.4-5.1,1.2-7.3c.8-2.2,1.9-4.1,3.4-5.6,1.5-1.6,3.2-2.8,5.2-3.6s4.2-1.3,6.6-1.3,4.6.4,6.6,1.3c2,.8,3.7,2,5.2,3.6,1.4,1.6,2.5,3.4,3.3,5.6.8,2.2,1.2,4.6,1.2,7.3-.1,2.6-.5,5.1-1.3,7.3ZM465.5,78.9h-7.9v-32.9c1.5-.4,3.5-.8,5.9-1.2s5.1-.6,8.1-.6c2.8,0,5.1.4,7,1.1,1.9.8,3.3,1.8,4.5,3.2,1.1,1.4,1.9,3,2.3,4.9.5,1.9.7,4,.7,6.3v19.2h-7.9v-17.9c0-1.8-.1-3.4-.4-4.6-.2-1.3-.6-2.3-1.2-3.1-.5-.8-1.3-1.4-2.2-1.8-.9-.4-2.1-.6-3.4-.6-1,0-2,.1-3.1.2s-1.9.2-2.4.3v27.5ZM496.7,147c-.7,2.2-1.6,4-2.9,5.6s-2.8,2.8-4.7,3.6c-1.9.9-4,1.3-6.4,1.3-1.6,0-3.1-.2-4.4-.6-1.3-.4-2.4-.8-3.3-1.3v13.3h-7.9v-44.9c1.6-.4,3.6-.8,5.9-1.2s4.8-.6,7.4-.6,5.1.4,7.2,1.2,3.9,2,5.4,3.5,2.6,3.4,3.4,5.6c.8,2.2,1.2,4.6,1.2,7.4.1,2.6-.2,5-.9,7.1ZM494.8,69c-.7-2.2-1-4.6-1-7.1s.4-4.9,1.2-7.1c.8-2.2,1.9-4.1,3.3-5.7,1.5-1.6,3.2-2.9,5.3-3.8s4.4-1.4,7-1.4c3.2,0,6.2.6,9.1,1.8l-1.7,6.4c-.9-.4-1.9-.7-3.1-1-1.2-.3-2.4-.4-3.7-.4-3.1,0-5.4,1-7,2.9s-2.4,4.6-2.4,8.2c0,3.4.8,6.1,2.3,8,1.5,2,4.1,3,7.7,3,1.3,0,2.7-.1,4-.4s2.4-.6,3.4-1l1.1,6.5c-.9.4-2.2.8-3.9,1.2-1.8.3-3.6.5-5.4.5-2.9,0-5.4-.4-7.6-1.3-2.1-.9-3.9-2.1-5.3-3.7-1.5-1.5-2.6-3.4-3.3-5.6ZM524.6,155.2c-2.4,1.7-5.8,2.5-10.3,2.5-3,0-5.4-.3-7.2-.7-1.8-.5-3.1-.9-3.8-1.2l1.4-6.6c1.2.5,2.6.9,4.2,1.4,1.6.4,3.5.6,5.6.6s3.6-.3,4.5-.7c1-.5,1.4-1.4,1.4-2.6,0-1.1-.5-2.1-1.5-2.8s-2.7-1.5-5-2.4c-1.4-.5-2.7-1.1-3.9-1.7-1.2-.6-2.2-1.3-3.1-2-.9-.8-1.5-1.7-2.1-2.8-.5-1.1-.7-2.5-.7-4.1,0-3.1,1.1-5.6,3.4-7.4s5.4-2.7,9.4-2.7c2,0,3.9.2,5.7.6,1.8.4,3.2.7,4.1,1.1l-1.4,6.4c-.9-.4-2-.7-3.3-1.1-1.3-.3-2.9-.5-4.7-.5-1.6,0-2.9.3-3.9.8s-1.5,1.4-1.5,2.5c0,.6.1,1.1.3,1.5s.5.8,1,1.2,1.1.7,1.9,1.1c.8.4,1.7.7,2.9,1.1,1.9.7,3.4,1.4,4.7,2,1.3.7,2.4,1.4,3.2,2.3.8.8,1.5,1.8,1.8,2.9.4,1.1.6,2.4.6,3.9-.1,3.3-1.3,5.7-3.7,7.4ZM528.3,74.8c-1.4-1.6-2.5-3.4-3.3-5.7-.8-2.2-1.2-4.7-1.2-7.3s.4-5.1,1.2-7.3c.8-2.2,1.9-4.1,3.4-5.6,1.5-1.6,3.2-2.8,5.2-3.6,2-.8,4.2-1.3,6.6-1.3s4.6.4,6.6,1.3c2,.8,3.7,2,5.2,3.6,1.4,1.6,2.5,3.4,3.3,5.6s1.2,4.6,1.2,7.3-.4,5.1-1.2,7.3c-.8,2.2-1.9,4.1-3.3,5.7-1.4,1.6-3.2,2.8-5.2,3.6-2,.9-4.2,1.3-6.7,1.3s-4.6-.4-6.6-1.3c-2-.8-3.8-2-5.2-3.6ZM556.5,156.9c-.8-1.3-1.7-2.8-2.7-4.2-1-1.5-2.1-2.9-3.3-4.3-1.2-1.4-2.4-2.7-3.6-3.9-1.2-1.2-2.4-2.3-3.6-3.2v15.6h-7.9v-49.1l7.9-1.3v29.7c1-1,2.1-2.2,3.2-3.3,1.1-1.2,2.2-2.4,3.3-3.6,1.1-1.2,2.1-2.3,3.1-3.4,1-1.1,1.8-2.1,2.5-2.9h9.3c-2.2,2.4-4.4,4.9-6.8,7.5-2.4,2.6-4.8,5.1-7.2,7.6,1.3,1.1,2.7,2.4,4.1,3.9,1.4,1.5,2.8,3.2,4.1,4.9s2.6,3.5,3.8,5.2,2.1,3.3,2.9,4.8h-9.1ZM559.6,44.9h8.4c.5,1.9,1,4,1.7,6.1.6,2.2,1.3,4.4,2,6.6s1.5,4.3,2.2,6.4c.8,2.1,1.5,3.9,2.1,5.6.7-1.6,1.3-3.5,2.1-5.6.7-2.1,1.5-4.2,2.2-6.4.7-2.2,1.4-4.4,2.1-6.6.6-2.2,1.2-4.2,1.7-6.1h8.1c-1.9,6.6-3.9,12.8-6.2,18.6-2.3,5.8-4.5,10.9-6.7,15.4h-6.7c-2.2-4.5-4.4-9.6-6.7-15.4-2.4-5.8-4.4-12-6.3-18.6ZM599.2,147.2c-.8,2.2-1.9,4.1-3.3,5.7-1.4,1.6-3.2,2.8-5.2,3.6-2,.9-4.2,1.3-6.7,1.3s-4.6-.4-6.6-1.3c-2-.9-3.7-2.1-5.1-3.6-1.4-1.6-2.5-3.4-3.3-5.7-.8-2.2-1.2-4.7-1.2-7.3s.4-5.1,1.2-7.3,1.9-4.1,3.4-5.6c1.5-1.6,3.2-2.8,5.2-3.6s4.2-1.3,6.6-1.3,4.6.4,6.6,1.3c2,.8,3.7,2,5.2,3.6,1.4,1.6,2.5,3.4,3.3,5.6.8,2.2,1.2,4.6,1.2,7.3-.1,2.6-.5,5.1-1.3,7.3ZM599.3,77.1c-1.2-.9-2.1-2-2.8-3.4s-1-3.1-1-5.1.4-3.6,1.1-4.9c.8-1.3,1.8-2.4,3.1-3.3,1.3-.8,2.8-1.5,4.5-1.8,1.7-.4,3.5-.6,5.4-.6.9,0,1.8.1,2.7.2s2,.3,3.1.6v-1.3c0-.9-.1-1.8-.3-2.6-.2-.8-.6-1.5-1.1-2.2-.5-.6-1.3-1.1-2.1-1.5-.9-.3-2-.5-3.3-.5-1.8,0-3.5.1-5,.4s-2.8.6-3.7.9l-1-6.4c1-.3,2.4-.7,4.4-1,1.9-.3,3.9-.5,6.1-.5,2.6,0,4.8.3,6.6,1,1.8.6,3.2,1.6,4.3,2.7,1.1,1.2,1.8,2.6,2.3,4.3.5,1.7.7,3.5.7,5.5v20.6c-1.2.3-3,.6-5.5.9-2.4.4-5.2.6-8.3.6-2,0-3.9-.2-5.6-.6-1.9-.5-3.4-1.1-4.6-2ZM636.4,155.8c-1.5.4-3.5.8-5.9,1.2s-5.1.6-8,.6c-2.7,0-5-.4-6.9-1.2s-3.3-1.9-4.4-3.3c-1.1-1.4-1.9-3-2.4-5-.5-1.9-.7-4-.7-6.3v-19h7.9v17.8c0,3.6.5,6.2,1.6,7.8s2.9,2.3,5.6,2.3c1,0,2,0,3-.1,1.1-.1,1.9-.2,2.4-.3v-27.4h7.9v32.9h-.1ZM661.1,78.9h-7.9v-17.9c0-1.8-.1-3.4-.4-4.6-.2-1.3-.6-2.3-1.2-3.1-.5-.8-1.3-1.4-2.2-1.8s-2.1-.6-3.4-.6c-1,0-2,.1-3.1.2s-1.9.2-2.4.3v27.5h-7.9v-32.9c1.5-.4,3.5-.8,5.9-1.2s5.1-.6,8.1-.6c2.8,0,5.1.4,7,1.1,1.9.8,3.3,1.8,4.5,3.2,1.1,1.4,1.9,3,2.3,4.9.5,1.9.7,4,.7,6.3v19.2h0ZM689.5,155.8c-1.5.4-3.5.8-5.9,1.2s-5.1.6-8,.6c-2.7,0-5-.4-6.9-1.2s-3.3-1.9-4.4-3.3c-1.1-1.4-1.9-3-2.4-5-.5-1.9-.7-4-.7-6.3v-19h7.9v17.8c0,3.6.5,6.2,1.6,7.8s2.9,2.3,5.6,2.3c1,0,2,0,3-.1,1.1-.1,1.8-.2,2.4-.3v-27.4h7.9v32.9h-.1ZM691.8,78.5c-2,.9-4.2,1.3-6.7,1.3s-4.6-.4-6.6-1.3-3.7-2.1-5.1-3.6c-1.4-1.6-2.5-3.4-3.3-5.7-.8-2.2-1.2-4.7-1.2-7.3s.4-5.1,1.2-7.3c.8-2.2,1.9-4.1,3.4-5.6,1.5-1.6,3.2-2.8,5.2-3.6,2-.8,4.2-1.3,6.6-1.3s4.6.4,6.6,1.3c2,.8,3.7,2,5.2,3.6,1.4,1.6,2.5,3.4,3.3,5.6s1.2,4.6,1.2,7.3-.4,5.1-1.2,7.3c-.8,2.2-1.9,4.1-3.3,5.7-1.6,1.5-3.3,2.7-5.3,3.6ZM727.9,156.9h-7.9v-17.9c0-1.8-.1-3.4-.4-4.6-.2-1.3-.6-2.3-1.2-3.1-.5-.8-1.3-1.4-2.2-1.8-.9-.4-2.1-.6-3.4-.6-1,0-2,.1-3.1.2-1.1.1-1.9.2-2.4.3v27.5h-7.9v-32.9c1.5-.4,3.5-.8,5.9-1.2s5.1-.6,8.1-.6c2.8,0,5.1.4,7,1.1,1.9.8,3.3,1.8,4.5,3.2,1.1,1.4,1.9,3,2.3,4.9.5,1.9.7,4,.7,6.3v19.2h0ZM745.4,156.9h-7.9v-34h7.9v34ZM744.8,116.4c-.9.9-2.1,1.3-3.4,1.3s-2.5-.4-3.4-1.3c-1-.9-1.4-2-1.4-3.5s.5-2.7,1.4-3.6c.9-.9,2.1-1.3,3.4-1.3s2.4.4,3.4,1.3c1,.9,1.4,2.1,1.4,3.6.1,1.5-.4,2.7-1.4,3.5ZM763.4,156.9h-7.9v-34h7.9v34ZM758.2,119.2l-3.9-3.5,9.6-11.4,4.9,4.6-10.6,10.3Z" fill="none"/>
      <path d="M0,0v200.3h295V0H0ZM289.3,194.6H5.7V5.5h283.6v189.1h0Z" fill="#fff"/>
      <path d="M5.7,194.6h283.6V5.5H5.7v189.1ZM207.1,139.7l-6-4.4-6,4.4,2.3-7.1-6.1-4.4h7.5l2.3-7.2,2.3,7.2h7.5l-6.1,4.4,2.3,7.1ZM219.1,97.1l-6.1,4.4,2.3,7.1-6-4.4-6,4.4,2.3-7.1-6.1-4.4h7.5l2.3-7.2,2.3,7.2h7.5ZM198.8,66.2l2.3-7.2,2.3,7.2h7.5l-6.1,4.4,2.3,7.1-6-4.4-6,4.4,2.3-7.1-6.1-4.4h7.5ZM176.2,43.6l2.3-7.2,2.3,7.1h7.5l-6.1,4.4,2.3,7.1-6-4.4-6,4.4,2.3-7.1-6.1-4.4,7.5.1ZM176.1,151l2.3-7.2,2.3,7.1h7.5l-6.1,4.4,2.3,7.1-6-4.4-6,4.4,2.3-7.1-6.1-4.4,7.5.1ZM153.4,170.6l-6-4.4-6,4.4,2.3-7.1-6.1-4.4h7.5l2.3-7.2,2.3,7.2h7.5l-6.1,4.4,2.3,7.1ZM145.2,35.3l2.3-7.2,2.3,7.1h7.5l-6.1,4.4,2.3,7.1-6-4.4-6,4.4,2.3-7.1-6.1-4.4,7.5.1ZM122.5,162.4l-6-4.4-6,4.4,2.3-7.1-6.1-4.4h7.5l2.3-7.2,2.3,7.1h7.5l-6.1,4.4,2.3,7.2ZM114.2,43.6l2.3-7.2,2.3,7.2h7.5l-6.1,4.4,2.3,7.1-6-4.4-6,4.4,2.3-7.1-6.1-4.4h7.5ZM99.8,139.7l-6-4.4-6,4.4,2.3-7.1-6.1-4.4h7.5l2.3-7.2,2.3,7.2h7.5l-6.1,4.4,2.3,7.1ZM91.5,66.3l2.3-7.2,2.3,7.2h7.5l-6.1,4.4,2.3,7.1-6-4.4-6,4.4,2.3-7.1-6.1-4.4h7.5ZM83.2,97.2l2.3-7.2,2.3,7.2h7.5l-6.1,4.4,2.3,7.1-6-4.4-6,4.4,2.3-7.1-6.1-4.4h7.5Z" fill="#034ea2"/>
      <polygon points="141.5 46.7 147.5 42.3 153.4 46.7 151.2 39.6 157.2 35.3 149.8 35.3 147.5 28.1 145.2 35.3 137.7 35.3 143.8 39.6 141.5 46.7" fill="#fff100"/>
      <polygon points="110.5 55 116.5 50.6 122.5 55 120.2 48 126.3 43.6 118.8 43.6 116.5 36.4 114.2 43.6 106.7 43.6 112.8 48 110.5 55" fill="#fff100"/>
      <polygon points="87.8 77.7 93.8 73.4 99.8 77.7 97.5 70.7 103.6 66.3 96.1 66.3 93.8 59.1 91.5 66.3 84.1 66.3 90.1 70.7 87.8 77.7" fill="#fff100"/>
      <polygon points="79.5 108.7 85.5 104.3 91.5 108.7 89.2 101.6 95.3 97.2 87.8 97.2 85.5 90.1 83.2 97.2 75.7 97.2 81.8 101.6 79.5 108.7" fill="#fff100"/>
      <polygon points="96.1 128.2 93.8 121.1 91.5 128.3 84.1 128.2 90.1 132.6 87.8 139.7 93.8 135.3 99.8 139.7 97.5 132.6 103.6 128.2 96.1 128.2" fill="#fff100"/>
      <polygon points="118.8 151 116.5 143.8 114.2 151 106.8 151 112.8 155.3 110.6 162.4 116.5 158 122.5 162.4 120.2 155.3 126.3 151 118.8 151" fill="#fff100"/>
      <polygon points="149.8 159.2 147.5 152 145.2 159.2 137.7 159.2 143.8 163.5 141.5 170.6 147.5 166.2 153.4 170.6 151.2 163.5 157.2 159.2 149.8 159.2" fill="#fff100"/>
      <polygon points="172.4 162.4 178.4 158 184.4 162.4 182.1 155.3 188.2 151 180.7 151 178.4 143.8 176.1 151 168.6 151 174.7 155.3 172.4 162.4" fill="#fff100"/>
      <polygon points="203.4 128.2 201.1 121.1 198.8 128.3 191.3 128.2 197.4 132.6 195.1 139.7 201.1 135.3 207.1 139.7 204.8 132.6 210.9 128.2 203.4 128.2" fill="#fff100"/>
      <polygon points="207 97.1 199.5 97.1 205.6 101.5 203.3 108.6 209.3 104.2 215.3 108.6 213 101.5 219.1 97.1 211.6 97.1 209.3 90 207 97.1" fill="#fff100"/>
      <polygon points="195.1 77.6 201.1 73.3 207.1 77.6 204.8 70.6 210.9 66.2 203.4 66.2 201.1 59.1 198.8 66.2 191.3 66.2 197.4 70.6 195.1 77.6" fill="#fff100"/>
      <polygon points="172.5 55 178.5 50.6 184.5 55 182.2 48 188.3 43.6 180.8 43.6 178.5 36.4 176.2 43.6 168.7 43.6 174.8 48 172.5 55" fill="#fff100"/>
      <polygon points="339.8 59.2 357.8 59.2 357.8 52.3 339.8 52.3 339.8 40.8 360 40.8 360 33.8 331.6 33.8 331.6 78.9 339.8 78.9 339.8 59.2" fill="#034ea2"/>
      <rect x="367.1" y="44.9" width="7.9" height="34" fill="#034ea2"/>
      <path d="M371,39.7c1.3,0,2.4-.4,3.4-1.3,1-.9,1.4-2,1.4-3.5s-.5-2.7-1.4-3.6c-.9-.9-2.1-1.3-3.4-1.3s-2.5.4-3.4,1.3c-1,.9-1.4,2.1-1.4,3.6s.5,2.6,1.4,3.5c.9.9,2,1.3,3.4,1.3Z" fill="#034ea2"/>
      <path d="M403.9,53.2c.5.8.9,1.8,1.2,3.1.2,1.3.4,2.8.4,4.6v18h7.9v-19.1c0-2.3-.2-4.4-.7-6.3s-1.2-3.6-2.3-4.9c-1.1-1.4-2.6-2.4-4.5-3.2-1.9-.8-4.2-1.1-7-1.1s-5.6.2-8.1.6c-2.4.4-4.4.8-5.9,1.2v32.8h7.9v-27.5c.5-.1,1.3-.2,2.4-.3,1.1-.1,2.1-.2,3.1-.2,1.3,0,2.5.2,3.4.6,1,.3,1.7.9,2.2,1.7Z" fill="#034ea2"/>
      <path d="M434.3,79.6c3.1,0,5.8-.2,8.3-.6,2.4-.4,4.3-.7,5.5-.9v-20.6c0-2-.2-3.8-.7-5.5s-1.2-3.1-2.3-4.3c-1.1-1.2-2.5-2.1-4.3-2.7-1.8-.7-4-1-6.6-1-2.2,0-4.2.2-6.1.5s-3.4.7-4.4,1l1,6.4c.9-.3,2.2-.6,3.7-.9s3.2-.4,5-.4c1.3,0,2.5.2,3.3.5.9.3,1.6.8,2.1,1.5.5.6.9,1.4,1.1,2.2.2.8.3,1.7.3,2.6v1.3c-1.1-.3-2.1-.4-3.1-.6-1-.1-1.9-.2-2.7-.2-1.9,0-3.6.2-5.4.6-1.7.4-3.2,1-4.5,1.8s-2.3,1.9-3.1,3.3c-.8,1.3-1.1,3-1.1,4.9,0,2,.3,3.7,1,5.1s1.6,2.5,2.8,3.4c1.2.9,2.6,1.5,4.3,1.9,2,.5,3.8.7,5.9.7ZM429.1,66c.4-.6,1-1.1,1.7-1.5.7-.3,1.5-.6,2.4-.7s1.8-.2,2.6-.2c1,0,1.9.1,2.7.2.8.1,1.5.3,1.9.4v8.7c-1.3.3-3.1.4-5.5.4-2,0-3.6-.4-4.7-1.1-1.2-.7-1.8-2-1.8-3.9,0-.9.2-1.6.7-2.3Z" fill="#034ea2"/>
      <path d="M471.1,50.9c1.3,0,2.5.2,3.4.6s1.7,1,2.2,1.8.9,1.8,1.2,3.1c.2,1.3.4,2.8.4,4.6v17.9h7.9v-19.1c0-2.3-.2-4.4-.7-6.3s-1.2-3.6-2.3-4.9c-1.1-1.4-2.6-2.4-4.5-3.2-1.9-.8-4.2-1.1-7-1.1s-5.6.2-8.1.6-4.4.8-5.9,1.2v32.8h7.9v-27.5c.5-.1,1.3-.2,2.4-.3,1-.1,2.1-.2,3.1-.2Z" fill="#034ea2"/>
      <path d="M510.9,79.7c1.9,0,3.7-.2,5.4-.5,1.8-.3,3.1-.7,3.9-1.2l-1.1-6.5c-1,.4-2.1.7-3.4,1-1.3.3-2.6.4-4,.4-3.6,0-6.2-1-7.7-3s-2.3-4.6-2.3-8,.8-6.2,2.4-8.2c1.6-1.9,3.9-2.9,7-2.9,1.3,0,2.5.1,3.7.4,1.1.3,2.2.6,3.1,1l1.7-6.4c-2.9-1.2-5.9-1.8-9.1-1.8-2.6,0-4.9.5-7,1.4s-3.8,2.2-5.3,3.8c-1.5,1.6-2.6,3.5-3.3,5.7-.8,2.2-1.2,4.5-1.2,7.1s.3,4.9,1,7.1,1.7,4.1,3.2,5.7c1.4,1.6,3.2,2.8,5.3,3.7,2.3.8,4.8,1.2,7.7,1.2Z" fill="#034ea2"/>
      <path d="M546.7,78.5c2-.9,3.7-2.1,5.2-3.6,1.4-1.6,2.5-3.4,3.3-5.7.8-2.2,1.2-4.7,1.2-7.3s-.4-5.1-1.2-7.3c-.8-2.2-1.9-4.1-3.3-5.6-1.4-1.6-3.2-2.8-5.2-3.6-2-.8-4.2-1.3-6.6-1.3s-4.6.4-6.6,1.3c-2,.8-3.7,2-5.2,3.6s-2.6,3.4-3.4,5.6c-.8,2.2-1.2,4.6-1.2,7.3s.4,5.1,1.2,7.3c.8,2.2,1.9,4.1,3.3,5.7,1.4,1.6,3.1,2.8,5.1,3.6,2,.9,4.2,1.3,6.6,1.3s4.8-.5,6.8-1.3ZM534,70c-1.5-2-2.2-4.7-2.2-8.1s.7-6.1,2.2-8c1.5-2,3.5-3,6.1-3s4.6,1,6.1,3,2.2,4.6,2.2,8-.7,6.1-2.2,8.1-3.5,3-6.1,3c-2.6-.1-4.6-1-6.1-3Z" fill="#034ea2"/>
      <path d="M579.2,78.9c2.2-4.5,4.4-9.6,6.7-15.4s4.4-12,6.2-18.6h-8.1c-.5,1.9-1,4-1.7,6.1-.7,2.2-1.3,4.4-2.1,6.6-.7,2.2-1.5,4.3-2.2,6.4s-1.4,3.9-2.1,5.6c-.7-1.6-1.4-3.5-2.1-5.6-.8-2.1-1.5-4.2-2.2-6.4-.7-2.2-1.4-4.4-2-6.6s-1.2-4.2-1.7-6.1h-8.4c1.9,6.6,3.9,12.8,6.2,18.6,2.3,5.8,4.5,10.9,6.7,15.4h6.8Z" fill="#034ea2"/>
      <path d="M617.5,79c2.4-.4,4.3-.7,5.5-.9v-20.6c0-2-.2-3.8-.7-5.5s-1.2-3.1-2.3-4.3c-1.1-1.2-2.5-2.1-4.3-2.7-1.8-.7-4-1-6.6-1-2.2,0-4.2.2-6.1.5-1.9.3-3.4.7-4.4,1l1,6.4c.9-.3,2.2-.6,3.7-.9s3.2-.4,5-.4c1.3,0,2.5.2,3.3.5.9.3,1.6.8,2.1,1.5.5.6.9,1.4,1.1,2.2.2.8.3,1.7.3,2.6v1.3c-1.1-.3-2.1-.4-3.1-.6-1-.1-1.9-.2-2.7-.2-1.9,0-3.6.2-5.4.6-1.7.4-3.2,1-4.5,1.8s-2.3,1.9-3.1,3.3c-.8,1.3-1.1,3-1.1,4.9,0,2,.3,3.7,1,5.1s1.6,2.5,2.8,3.4,2.6,1.5,4.3,1.9,3.6.6,5.6.6c3.4.1,6.2-.1,8.6-.5ZM603.4,68.4c0-.9.2-1.7.7-2.4.4-.6,1-1.1,1.7-1.5.7-.3,1.5-.6,2.4-.7s1.8-.2,2.6-.2c1,0,1.9.1,2.7.2s1.5.3,1.9.4v8.7c-1.3.3-3.1.4-5.5.4-2,0-3.6-.4-4.7-1.1-1.2-.7-1.8-1.9-1.8-3.8Z" fill="#034ea2"/>
      <polygon points="619.1 31 614.1 26.3 604.6 37.7 608.5 41.2 619.1 31" fill="#034ea2"/>
      <path d="M658,48.5c-1.1-1.4-2.6-2.4-4.5-3.2-1.9-.8-4.2-1.1-7-1.1s-5.6.2-8.1.6-4.4.8-5.9,1.2v32.9h7.9v-27.5c.5-.1,1.3-.2,2.4-.3,1.2-.1,2.2-.2,3.2-.2,1.3,0,2.5.2,3.4.6s1.7,1,2.2,1.8.9,1.8,1.2,3.1c.2,1.3.4,2.8.4,4.6v17.9h7.9v-19.1c0-2.3-.2-4.4-.7-6.3-.5-2-1.3-3.7-2.4-5Z" fill="#034ea2"/>
      <path d="M701.4,61.8c0-2.7-.4-5.1-1.2-7.3-.8-2.2-1.9-4.1-3.3-5.6-1.4-1.6-3.2-2.8-5.2-3.6-2-.8-4.2-1.3-6.6-1.3s-4.6.4-6.6,1.3c-2,.8-3.7,2-5.2,3.6s-2.6,3.4-3.4,5.6c-.8,2.2-1.2,4.6-1.2,7.3s.4,5.1,1.2,7.3c.8,2.2,1.9,4.1,3.3,5.7,1.4,1.6,3.1,2.8,5.1,3.6,2,.9,4.2,1.3,6.6,1.3s4.6-.4,6.7-1.3c2-.9,3.7-2.1,5.2-3.6,1.4-1.6,2.5-3.4,3.3-5.7.9-2.1,1.3-4.6,1.3-7.3ZM691.2,70c-1.5,2-3.5,3-6.1,3s-4.6-1-6.1-3-2.2-4.7-2.2-8.1.7-6.1,2.2-8c1.5-2,3.5-3,6.1-3s4.6,1,6.1,3,2.2,4.6,2.2,8-.8,6.1-2.2,8.1Z" fill="#034ea2"/>
      <polygon points="339.8 136.7 358.2 136.7 358.2 129.9 339.8 129.9 339.8 118.8 360.5 118.8 360.5 111.8 331.6 111.8 331.6 156.9 362.1 156.9 362.1 149.9 339.8 149.9 339.8 136.7" fill="#034ea2"/>
      <path d="M386.4,129c-.7,2.2-1.3,4.4-2.1,6.6-.7,2.2-1.5,4.3-2.2,6.4-.7,2.1-1.4,3.9-2.1,5.6-.7-1.6-1.4-3.5-2.1-5.6-.8-2.1-1.5-4.2-2.2-6.4s-1.4-4.4-2-6.6c-.6-2.2-1.2-4.2-1.7-6.1h-8.4c1.9,6.6,3.9,12.8,6.2,18.6,2.3,5.8,4.5,10.9,6.7,15.4h6.7c2.2-4.5,4.4-9.6,6.7-15.4,2.3-5.8,4.4-12,6.2-18.6h-8.1c-.4,1.9-.9,3.9-1.6,6.1Z" fill="#034ea2"/>
      <path d="M419.2,122.5c-.7-.1-1.4-.2-2.1-.3s-1.3-.1-1.8-.1c-2.8,0-5.3.3-7.6.7-2.3.5-4.2,1-5.7,1.6v32.5h7.9v-27.2c.4-.1,1.1-.3,2-.5,1-.2,1.9-.3,2.8-.3,1.5,0,2.8.1,4,.4,1.1.2,2,.5,2.7.7l1.4-6.6c-.4-.1-.9-.3-1.6-.4-.6-.3-1.3-.4-2-.5Z" fill="#034ea2"/>
      <path d="M454.4,126.9c-1.4-1.6-3.2-2.8-5.2-3.6s-4.2-1.3-6.6-1.3-4.6.4-6.6,1.3c-2,.8-3.7,2-5.2,3.6s-2.6,3.4-3.4,5.6c-.8,2.2-1.2,4.6-1.2,7.3s.4,5.1,1.2,7.3c.8,2.2,1.9,4.1,3.3,5.7,1.4,1.6,3.1,2.8,5.1,3.6,2,.9,4.2,1.3,6.6,1.3s4.6-.4,6.7-1.3c2-.9,3.7-2.1,5.2-3.6,1.4-1.6,2.5-3.4,3.3-5.7.8-2.2,1.2-4.7,1.2-7.3s-.4-5.1-1.2-7.3c-.6-2.2-1.8-4-3.2-5.6ZM448.7,148c-1.5,2-3.5,3-6.1,3s-4.6-1-6.1-3-2.2-4.7-2.2-8.1.7-6.1,2.2-8c1.5-2,3.5-3,6.1-3s4.6,1,6.1,3,2.2,4.6,2.2,8c0,3.4-.7,6.1-2.2,8.1Z" fill="#034ea2"/>
      <path d="M493.1,126.9c-1.5-1.5-3.3-2.7-5.4-3.5s-4.5-1.2-7.2-1.2-5.1.2-7.4.6c-2.3.4-4.3.8-5.9,1.2v44.9h7.9v-13.2c.9.5,2,.9,3.3,1.3,1.3.4,2.8.6,4.4.6,2.4,0,4.5-.4,6.4-1.3,1.9-.9,3.5-2.1,4.7-3.6,1.3-1.6,2.2-3.4,2.9-5.6.7-2.2,1-4.5,1-7.2s-.4-5.2-1.2-7.4c-.9-2.2-2-4-3.5-5.6ZM487.7,147.9c-1.3,2-3.4,2.9-6.3,2.9-1.3,0-2.5-.2-3.7-.6-1.1-.4-2.1-.9-2.8-1.3v-19.4c.8-.2,1.6-.4,2.4-.4.8-.1,1.6-.1,2.3-.1,3.5,0,6.1,1,7.6,2.9,1.6,1.9,2.4,4.7,2.4,8.2,0,3.2-.6,5.8-1.9,7.8Z" fill="#034ea2"/>
      <path d="M525.8,141c-.8-.8-1.9-1.6-3.2-2.3s-2.9-1.4-4.7-2c-1.1-.4-2.1-.8-2.9-1.1-.8-.4-1.4-.7-1.9-1.1-.5-.4-.8-.8-1-1.2s-.3-.9-.3-1.5c0-1.1.5-2,1.5-2.5s2.3-.8,3.9-.8c1.8,0,3.3.2,4.7.5,1.3.3,2.4.7,3.3,1.1l1.4-6.4c-.9-.3-2.3-.7-4.1-1.1-1.8-.4-3.7-.6-5.7-.6-3.9,0-7.1.9-9.4,2.7s-3.4,4.3-3.4,7.4c0,1.6.2,3,.7,4.1s1.2,2.1,2.1,2.8c.9.8,1.9,1.5,3.1,2,1.2.6,2.5,1.1,3.9,1.7,2.3.9,4,1.7,5,2.4s1.5,1.7,1.5,2.8c0,1.2-.5,2.1-1.4,2.6-1,.5-2.5.7-4.5.7-2.1,0-3.9-.2-5.6-.6-1.6-.4-3-.9-4.2-1.4l-1.4,6.6c.7.3,2,.7,3.8,1.2s4.2.7,7.2.7c4.5,0,7.9-.8,10.3-2.5,2.4-1.7,3.6-4.1,3.6-7.4,0-1.5-.2-2.8-.6-3.9-.3-1.1-.9-2-1.7-2.9Z" fill="#034ea2"/>
      <path d="M558.9,146.9c-1.3-1.7-2.7-3.4-4.1-4.9-1.4-1.5-2.8-2.8-4.1-3.9,2.4-2.5,4.8-5,7.2-7.6s4.7-5.1,6.8-7.5h-9.3c-.7.8-1.5,1.8-2.5,2.9-1,1.1-2,2.3-3.1,3.4-1.1,1.2-2.2,2.4-3.3,3.6-1.1,1.2-2.2,2.3-3.2,3.3v-29.7l-7.9,1.3v49.1h7.9v-15.6c1.2.9,2.4,1.9,3.6,3.2,1.2,1.2,2.4,2.5,3.6,3.9,1.2,1.4,2.3,2.8,3.3,4.3s1.9,2.9,2.7,4.2h9.1c-.8-1.5-1.8-3.1-2.9-4.8-1.2-1.8-2.4-3.5-3.8-5.2Z" fill="#034ea2"/>
      <path d="M595.9,126.9c-1.4-1.6-3.2-2.8-5.2-3.6s-4.2-1.3-6.6-1.3-4.6.4-6.6,1.3c-2,.8-3.7,2-5.2,3.6s-2.6,3.4-3.4,5.6c-.8,2.2-1.2,4.6-1.2,7.3s.4,5.1,1.2,7.3,1.9,4.1,3.3,5.7c1.4,1.6,3.1,2.8,5.1,3.6,2,.9,4.2,1.3,6.6,1.3s4.6-.4,6.7-1.3c2-.9,3.7-2.1,5.2-3.6,1.4-1.6,2.5-3.4,3.3-5.7.8-2.2,1.2-4.7,1.2-7.3s-.4-5.1-1.2-7.3c-.7-2.2-1.8-4-3.2-5.6ZM590.2,148c-1.5,2-3.5,3-6.1,3s-4.6-1-6.1-3-2.2-4.7-2.2-8.1.7-6.1,2.2-8c1.5-2,3.5-3,6.1-3s4.6,1,6.1,3,2.2,4.6,2.2,8c-.1,3.4-.8,6.1-2.2,8.1Z" fill="#034ea2"/>
      <path d="M628.6,150.4c-.5.1-1.3.2-2.4.3-1.1.1-2.1.1-3,.1-2.6,0-4.5-.8-5.6-2.3-1.1-1.6-1.6-4.2-1.6-7.8v-17.8h-7.9v19c0,2.3.2,4.4.7,6.3.5,1.9,1.3,3.6,2.4,5,1.1,1.4,2.6,2.5,4.4,3.3s4.1,1.2,6.9,1.2,5.6-.2,8-.6c2.4-.4,4.4-.8,5.9-1.2v-33h-7.9v27.5h.1Z" fill="#034ea2"/>
      <path d="M681.6,150.4c-.5.1-1.3.2-2.4.3-1.1.1-2.1.1-3,.1-2.6,0-4.5-.8-5.6-2.3-1.1-1.6-1.6-4.2-1.6-7.8v-17.8h-7.9v19c0,2.3.2,4.4.7,6.3.5,1.9,1.3,3.6,2.4,5,1.1,1.4,2.6,2.5,4.4,3.3s4.1,1.2,6.9,1.2,5.6-.2,8-.6c2.4-.4,4.4-.8,5.9-1.2v-33h-7.9v27.5h.1Z" fill="#034ea2"/>
      <path d="M724.8,126.5c-1.1-1.4-2.6-2.4-4.5-3.2s-4.2-1.1-7-1.1-5.6.2-8.1.6c-2.4.4-4.4.8-5.9,1.2v32.9h7.9v-27.4c.5-.1,1.3-.2,2.4-.3,1.1-.1,2.1-.2,3.1-.2,1.3,0,2.5.2,3.4.6.9.4,1.7,1,2.2,1.8s.9,1.8,1.2,3.1c.2,1.3.4,2.8.4,4.6v17.8h7.9v-19.1c0-2.3-.2-4.4-.7-6.3-.4-2-1.2-3.7-2.3-5Z" fill="#034ea2"/>
      <rect x="737.6" y="122.9" width="7.9" height="34" fill="#034ea2"/>
      <path d="M741.5,108c-1.3,0-2.5.4-3.4,1.3-1,.9-1.4,2.1-1.4,3.6s.5,2.6,1.4,3.5,2.1,1.3,3.4,1.3,2.4-.4,3.4-1.3c1-.9,1.4-2,1.4-3.5s-.5-2.7-1.4-3.6c-1-.8-2.1-1.3-3.4-1.3Z" fill="#034ea2"/>
      <rect x="755.5" y="122.9" width="7.9" height="34" fill="#034ea2"/>
      <polygon points="754.3 115.7 758.2 119.2 768.8 109 763.8 104.3 754.3 115.7" fill="#034ea2"/>
    </g>
  </g>
</svg>